<svg xmlns="http://www.w3.org/2000/svg" viewBox="0 0 1647.43 210.81"><defs><style>.cls-1,.cls-3{fill:#364566;}.cls-2{fill:#de4d3b;}.cls-3,.cls-6{font-size:153.76px;}.cls-3{font-family:Roboto, Helvetica, Arial;font-weight:500;}.cls-4{letter-spacing:-0.02em;}.cls-5{letter-spacing:-0.04em;}.cls-6{fill:#485f87;font-family:Roboto, Helvetica, Arial;font-weight:300;}</style></defs><title>resto-manager-logo</title><g id="Capa_2" data-name="Capa 2"><g id="Capa_1-2" data-name="Capa 1"><path class="cls-1" d="M115.92,145.13c-1.48-.24-3-.45-4.41-.64l-2.18-.27-2.17-.39c-1.44-.24-2.88-.47-4.32-.66l-4.26-.82L96.45,142l-2.11-.49c-1.4-.32-2.82-.58-4.21-.93-5.59-1.35-11.09-3-16.58-4.86A167.88,167.88,0,0,1,57,129.05a35.39,35.39,0,0,0,6.47,7c-3.15,5.64-12.6,26.19,11.43,35.25,28,10.55,45.89-23.41,45.89-23.41l-.41,0c1.53-.42,3-.89,4.54-1.42C121.86,145.8,118.88,145.59,115.92,145.13Zm-8.86,11.32a8.38,8.38,0,0,1-7.68,4.21C92.92,160.36,79,158.78,69,151a4.7,4.7,0,0,1-1.55-5.24,29.71,29.71,0,0,1,2.15-4.53s19.28,12.39,38.89,11A12.66,12.66,0,0,1,107.06,156.45Z"/><path class="cls-1" d="M126.53,94.51a6.83,6.83,0,0,0-9.43,2.07c-4.38,6.84-7.56,15.56-9.45,25.9a6.84,6.84,0,0,0,5.5,7.94,6.39,6.39,0,0,0,1.23.11,6.84,6.84,0,0,0,6.71-5.6c1.94-10.7,5.15-17.32,7.51-21A6.83,6.83,0,0,0,126.53,94.51Z"/><path class="cls-1" d="M70,117.11a6.47,6.47,0,0,0,1.23.11,6.82,6.82,0,0,0,6.71-5.6c2-10.69,5.16-17.32,7.51-21A6.83,6.83,0,0,0,74,83.27c-4.38,6.85-7.56,15.56-9.44,25.9A6.82,6.82,0,0,0,70,117.11Z"/><path class="cls-1" d="M230.74,54.32a21.2,21.2,0,0,0-18.65-28,21.2,21.2,0,1,0-41.77-5.62,21.64,21.64,0,0,0,.72,6,4.13,4.13,0,0,0-1,.45L141.84,45.71a4.13,4.13,0,0,0-.6.49A13,13,0,0,0,123,36.62a13.07,13.07,0,0,0-26,.59,85.11,85.11,0,0,0,2.18,170.2A85.75,85.75,0,0,0,168,172.73a3.88,3.88,0,0,0,.74-2.44,26.49,26.49,0,0,0,4.79.61,25.83,25.83,0,0,0,16.12-5.29,27.23,27.23,0,0,0,6-6.34,26.79,26.79,0,0,0,3.54-8,26,26,0,0,0-8.86-26.87,13.05,13.05,0,0,0,7.14-11.64,12.81,12.81,0,0,0-.23-2.42l21.28-14.8a4.27,4.27,0,0,0,.88-.87,21.15,21.15,0,0,0,8.27,1.89h.51a21.2,21.2,0,0,0,2.59-42.25ZM174.35,33.65l0,0a19.85,19.85,0,0,0,1.81,2.21,21.05,21.05,0,0,0,13.92,6.52,21.59,21.59,0,0,0-.62,4.62,21.24,21.24,0,0,0,18.61,21.55A21.12,21.12,0,0,0,212.8,90l-19.29,13.42a13.06,13.06,0,0,0-5.73-3.26,13,13,0,0,0,1.35-14l7.11-4.26a3.9,3.9,0,1,0-4-6.69l-8.76,5.26a12.92,12.92,0,0,0-10.22-.74,84.6,84.6,0,0,0-10-13.89,3.73,3.73,0,0,0,1.31-.46l18.36-11a3.9,3.9,0,0,0-4-6.69l-18.36,11a3.85,3.85,0,0,0-1.78,2.45A84.43,84.43,0,0,0,147,51.66ZM192.24,143.1a18.71,18.71,0,0,1-.63,6.23,20.29,20.29,0,0,1-6.57,10.5,21.17,21.17,0,0,1-11.67,4.93,22.12,22.12,0,0,1-13-2.77,24.82,24.82,0,0,1-9.88-10.36,22.32,22.32,0,0,0,7.67,13.49,22.89,22.89,0,0,0,3.86,2.64,3.28,3.28,0,0,0-.31.34,77.79,77.79,0,0,1-76.57,30.21A77.32,77.32,0,0,1,97,45a13.07,13.07,0,1,0,22.4,13,13.06,13.06,0,0,0,19.76-2.08,76.76,76.76,0,0,1,27.77,28.5,13,13,0,0,0-2.52,7.69,13.33,13.33,0,0,0,.5,3.54,13.07,13.07,0,0,0-.92,25.81,21.13,21.13,0,0,0-7.22,6,24.9,24.9,0,0,1,13.65-4.31,22.4,22.4,0,0,1,12.7,3.88A21.09,21.09,0,0,1,191,137,19.8,19.8,0,0,1,192.24,143.1Zm35.91-54.33h-.32a13.4,13.4,0,0,1-13.08-13.71,13.26,13.26,0,0,1,3.14-8.3,3.9,3.9,0,0,0-3-6.41,3.81,3.81,0,0,0-.95.12,13.66,13.66,0,0,1-3.6.42A13.39,13.39,0,0,1,199.57,40a3.9,3.9,0,0,0-4.32-5.92,13.18,13.18,0,0,1-4.05.52,13.43,13.43,0,1,1,11.43-5.92,3.9,3.9,0,0,0,4.31,5.93A13.4,13.4,0,0,1,224.08,47.8a13.23,13.23,0,0,1-3.15,8.29,3.91,3.91,0,0,0,3.94,6.3,13.12,13.12,0,0,1,3.6-.42,13.4,13.4,0,0,1-.32,26.8Z"/><path class="cls-1" d="M181,137.63c-14.57,3.12-19,12.31-19.23,12.7a3.9,3.9,0,0,0,1.87,5.19,3.8,3.8,0,0,0,1.66.38,3.9,3.9,0,0,0,3.53-2.24c0-.07,3.15-6.12,13.81-8.41a3.9,3.9,0,1,0-1.64-7.62Z"/><path class="cls-1" d="M139.16,136.85a2.3,2.3,0,1,0,2.3,2.29A2.3,2.3,0,0,0,139.16,136.85Z"/><circle class="cls-1" cx="133.2" cy="146.26" r="2.29"/><path class="cls-1" d="M143.3,147a2.29,2.29,0,1,0,2.29,2.29A2.29,2.29,0,0,0,143.3,147Z"/><path class="cls-1" d="M43,113a2.3,2.3,0,1,0,2.29,2.29A2.3,2.3,0,0,0,43,113Z"/><path class="cls-1" d="M37.06,120.1a2.3,2.3,0,1,0,2.3,2.3A2.29,2.29,0,0,0,37.06,120.1Z"/><path class="cls-1" d="M47.16,123.08a2.3,2.3,0,1,0,2.29,2.3A2.3,2.3,0,0,0,47.16,123.08Z"/><path class="cls-2" d="M181.26,164.76l1,1.81a14.16,14.16,0,0,0,5.56,5.56l1.81,1a1.24,1.24,0,0,1,0,2.18l-1.81,1a14,14,0,0,0-5.56,5.56l-1,1.81a1.24,1.24,0,0,1-2.18,0l-1-1.81a13.9,13.9,0,0,0-5.56-5.56l-1.81-1a1.24,1.24,0,0,1,0-2.18l1.81-1a14,14,0,0,0,5.56-5.56l1-1.81A1.24,1.24,0,0,1,181.26,164.76Z"/><path class="cls-2" d="M14.24,45.53l1.26,2.3a17.84,17.84,0,0,0,7.07,7.08l2.3,1.26a1.58,1.58,0,0,1,0,2.77l-2.3,1.26a17.77,17.77,0,0,0-7.07,7.08l-1.26,2.3a1.58,1.58,0,0,1-2.78,0l-1.26-2.3A17.74,17.74,0,0,0,3.12,60.2L.82,58.94a1.58,1.58,0,0,1,0-2.77l2.3-1.26a17.8,17.8,0,0,0,7.08-7.08l1.26-2.3A1.58,1.58,0,0,1,14.24,45.53Z"/><path class="cls-2" d="M7,83.11l.54,1a7.64,7.64,0,0,0,3,3l1,.54a.68.68,0,0,1,0,1.19l-1,.54a7.62,7.62,0,0,0-3,3l-.54,1a.68.68,0,0,1-1.19,0l-.54-1a7.64,7.64,0,0,0-3-3l-1-.54a.68.68,0,0,1,0-1.19l1-.54a7.67,7.67,0,0,0,3-3l.54-1A.68.68,0,0,1,7,83.11Z"/><text class="cls-3" transform="translate(271.04 168.53)">RE<tspan class="cls-4" x="214.18" y="0">S</tspan><tspan class="cls-5" x="310.28" y="0">T</tspan><tspan x="404.07" y="0">O</tspan></text><text class="cls-6" transform="translate(821.93 168.99)">MANAGER</text></g></g></svg>